<?xml version="1.0" encoding="iso-8859-1"?>
<!-- Uploaded to: SVG Repo, www.svgrepo.com, Generator: SVG Repo Mixer Tools -->
<svg fill="#000000" version="1.1" id="Layer_1" xmlns="http://www.w3.org/2000/svg" xmlns:xlink="http://www.w3.org/1999/xlink" 
	 viewBox="0 0 491.52 491.52" xml:space="preserve">
<g>
	<g>
		<g>
			<rect x="61.44" y="122.88" width="368.64" height="40.96"/>
			<rect x="61.44" y="204.8" width="368.64" height="81.92"/>
			<path d="M409.6,0H81.92C70.595,0,61.44,9.175,61.44,20.48v61.44h368.64V20.48C430.08,9.175,420.925,0,409.6,0z"/>
			<path d="M266.24,491.52H409.6c11.325,0,20.48-9.175,20.48-20.48V327.68H266.24V491.52z M327.68,389.12
				c0-11.305,9.155-20.48,20.48-20.48c11.325,0,20.48,9.175,20.48,20.48v40.96c0,11.305-9.155,20.48-20.48,20.48
				c-11.326,0-20.48-9.175-20.48-20.48V389.12z"/>
			<path d="M61.44,471.04c0,11.305,9.155,20.48,20.48,20.48h143.36V327.68H61.44V471.04z M122.88,389.12
				c0-11.305,9.155-20.48,20.48-20.48c11.325,0,20.48,9.175,20.48,20.48v40.96c0,11.305-9.155,20.48-20.48,20.48
				c-11.325,0-20.48-9.175-20.48-20.48V389.12z"/>
		</g>
	</g>
</g>
</svg>